<?xml version="1.0" encoding="utf-8"?>
<!-- Generator: Adobe Illustrator 24.1.1, SVG Export Plug-In . SVG Version: 6.00 Build 0)  -->
<svg version="1.1" id="Layer_1" xmlns="http://www.w3.org/2000/svg" xmlns:xlink="http://www.w3.org/1999/xlink" x="0px" y="0px"
	 viewBox="0 0 256.8 256.8" style="enable-background:new 0 0 256.8 256.8;" xml:space="preserve">
<style type="text/css">
	.st0{display:none;}
	.st1{display:inline;}
	.st2{fill:#1572B6;}
</style>
<g id="Layer_1_1_" class="st0">
	<g class="st1">
		<path class="st2" d="M6,1.4c-0.2,0-0.3,0-0.4,0.1C5.5,1.6,5.5,1.7,5.4,1.8S5.3,2.1,5.3,2.3c0,0.2,0,0.3,0,0.5v2.9
			c0,0.4-0.1,0.7-0.2,1C5,6.9,4.8,7.1,4.7,7.3C4.5,7.5,4.4,7.6,4.2,7.7C4.1,7.8,4,7.8,3.9,7.9v0C4,7.9,4.1,8,4.2,8
			c0.2,0.1,0.3,0.2,0.5,0.4S5,8.8,5.1,9s0.2,0.6,0.2,1V13c0,0.2,0,0.3,0,0.5c0,0.2,0.1,0.3,0.1,0.4c0.1,0.1,0.1,0.2,0.2,0.3
			c0.1,0.1,0.2,0.1,0.4,0.1h0.8v1H5.7c-0.2,0-0.4,0-0.6-0.1c-0.2-0.1-0.4-0.2-0.6-0.4c-0.2-0.2-0.3-0.4-0.4-0.7S4,13.5,4,13.2v-2.9
			c0-0.3,0-0.5-0.1-0.8C3.8,9.3,3.7,9.1,3.6,8.9C3.4,8.8,3.3,8.7,3.1,8.6C3,8.5,2.8,8.4,2.6,8.4V7.3c0.2,0,0.3,0,0.5-0.1
			C3.3,7.1,3.4,7,3.6,6.8s0.2-0.4,0.3-0.6C3.9,6,4,5.7,4,5.5V2.5C4,2.2,4,1.9,4.1,1.6S4.4,1.2,4.5,1s0.3-0.3,0.6-0.4
			c0.2-0.1,0.4-0.1,0.6-0.1h1.1v1H6z"/>
		<path class="st2" d="M10,14.3c0.2,0,0.3,0,0.4-0.1c0.1-0.1,0.2-0.2,0.2-0.3c0.1-0.1,0.1-0.3,0.1-0.4c0-0.2,0-0.3,0-0.5v-2.9
			c0-0.4,0.1-0.7,0.2-1c0.1-0.3,0.2-0.5,0.4-0.6c0.1-0.2,0.3-0.3,0.5-0.4s0.3-0.1,0.4-0.2V7.9c-0.1,0-0.2-0.1-0.4-0.1
			s-0.3-0.2-0.5-0.4S11,7,10.9,6.7s-0.2-0.6-0.2-1V2.8c0-0.2,0-0.4,0-0.5c0-0.2-0.1-0.3-0.1-0.4s-0.1-0.2-0.2-0.3
			c-0.1-0.1-0.2-0.1-0.4-0.1H9.2v-1h1.1c0.2,0,0.4,0,0.6,0.1c0.2,0.1,0.4,0.2,0.6,0.4c0.2,0.2,0.3,0.4,0.4,0.7C12,1.9,12,2.2,12,2.6
			v2.9c0,0.3,0,0.5,0.1,0.8c0.1,0.2,0.2,0.4,0.3,0.6c0.1,0.2,0.3,0.3,0.4,0.4c0.2,0.1,0.3,0.1,0.5,0.1v1.1c-0.2,0-0.3,0-0.5,0.1
			c-0.2,0.1-0.3,0.2-0.4,0.4c-0.1,0.2-0.2,0.4-0.3,0.6C12.1,9.8,12,10,12,10.3v2.9c0,0.3-0.1,0.6-0.2,0.9c-0.1,0.3-0.2,0.5-0.4,0.7
			c-0.2,0.2-0.4,0.3-0.6,0.4c-0.2,0.1-0.4,0.1-0.6,0.1H9.2v-1L10,14.3L10,14.3z"/>
	</g>
</g>
<g id="Layer_2_1_">
	<g>
		<path class="st2" d="M103.1,230.9v18.7h-7.7c-20,0-33.4-3.2-40.2-9.6c-6.8-6.4-10.2-19.2-10.2-38.3v-25.9c0-9.4-2.5-17.5-7.4-24.4
			c-5-6.8-12.6-10.2-23-10.2H0v-18.5h14.7c11.3,0,19.2-2.9,23.7-8.7s6.7-14.3,6.7-25.5V54.7c0-19.1,3.4-31.8,10.2-38.2
			C62,10.2,75.4,7,95.4,7h7.7v18.5h-8.4c-11.3,0-18.6,1.9-22,5.6c-3.4,3.8-5.1,11.8-5.1,24V90c0,15.2-2.8,25.4-8.3,30.7
			c-5.5,5.2-16.4,9-32.4,11.3c15.6,2,26.3,5.8,32,11.5c5.8,5.7,8.7,15.9,8.7,30.7v27.1c0,12.4,1.7,20.4,5.1,24.1s10.7,5.6,22,5.6
			L103.1,230.9L103.1,230.9z"/>
		<path class="st2" d="M162.2,230.9c11.2,0,18.6-1.9,22-5.6c3.4-3.7,5.1-11.8,5.1-24.1v-27.1c0-14.8,2.9-25,8.7-30.7
			c5.8-5.6,16.5-9.5,32-11.5c-16.1-2.3-26.9-6.1-32.4-11.3c-5.5-5.2-8.3-15.5-8.3-30.7V55.2c0-12.3-1.7-20.3-5.1-24
			c-3.4-3.8-10.7-5.6-22-5.6h-8.4V7h7.7c20,0,33.4,3.2,40.2,9.5c6.8,6.4,10.2,19.1,10.2,38.2v33.7c0,11.2,2.2,19.8,6.7,25.5
			c4.5,5.8,12.3,8.7,23.7,8.7h14.7v18.5h-14.7c-10.4,0-18,3.4-23,10.2c-5,6.8-7.4,15-7.4,24.4v25.9c0,19.1-3.4,31.9-10.2,38.3
			c-6.8,6.4-20.2,9.6-40.2,9.6h-7.7v-18.7L162.2,230.9L162.2,230.9z"/>
	</g>
</g>
</svg>
